<svg width="321" height="144" viewBox="0 0 321 144" fill="none" xmlns="http://www.w3.org/2000/svg">
<path d="M53.4553 56.2465C53.4553 58.0411 53.2222 59.661 52.7561 61.1061C52.3132 62.5278 51.7189 63.7864 50.973 64.8818C50.2272 65.9773 49.3532 66.9096 48.351 67.6787C47.3488 68.4479 46.3116 69.0771 45.2395 69.5666C44.1673 70.0561 43.0719 70.4173 41.9531 70.6504C40.8577 70.8835 39.8205 71 38.8416 71H3.77578V61.9102H38.8416C40.5896 61.9102 41.9415 61.3974 42.8971 60.3719C43.876 59.3464 44.3654 57.9712 44.3654 56.2465C44.3654 55.4074 44.2372 54.6383 43.9809 53.9391C43.7245 53.2398 43.3516 52.6339 42.8621 52.1211C42.396 51.6083 41.8133 51.2121 41.1141 50.9324C40.4382 50.6527 39.6807 50.5129 38.8416 50.5129H17.935C16.4666 50.5129 14.8817 50.2565 13.1803 49.7438C11.4788 49.2077 9.89395 48.357 8.42559 47.1916C6.98053 46.0262 5.76855 44.4996 4.78965 42.6117C3.83405 40.7238 3.35625 38.4164 3.35625 35.6895C3.35625 32.9625 3.83405 30.6667 4.78965 28.8021C5.76855 26.9143 6.98053 25.3876 8.42559 24.2223C9.89395 23.0336 11.4788 22.1829 13.1803 21.6701C14.8817 21.1341 16.4666 20.866 17.935 20.866H48.8754V29.9559H17.935C16.2102 29.9559 14.8584 30.4803 13.8795 31.5291C12.9239 32.5779 12.4461 33.9647 12.4461 35.6895C12.4461 37.4375 12.9239 38.8243 13.8795 39.8498C14.8584 40.852 16.2102 41.3531 17.935 41.3531H38.8416H38.9115C39.8904 41.3764 40.9276 41.5163 42.023 41.7727C43.1185 42.0057 44.2023 42.3786 45.2744 42.8914C46.3699 43.4042 47.407 44.0568 48.3859 44.8492C49.3648 45.6184 50.2272 46.5507 50.973 47.6461C51.7422 48.7415 52.3482 50.0001 52.791 51.4219C53.2339 52.8436 53.4553 54.4518 53.4553 56.2465ZM120.221 71H111.131V58.6938H79.1767V71H70.0869V45.933C70.0869 42.2738 70.7162 38.9059 71.9748 35.8293C73.2334 32.7527 74.9814 30.1074 77.2189 27.8932C79.4564 25.679 82.1018 23.9542 85.1551 22.7189C88.2083 21.4837 91.5412 20.866 95.1539 20.866H115.641C116.27 20.866 116.865 20.9826 117.424 21.2156C117.983 21.4487 118.473 21.775 118.892 22.1945C119.312 22.6141 119.638 23.1035 119.871 23.6629C120.104 24.2223 120.221 24.8166 120.221 25.4459V71ZM79.1767 49.6039H111.131V29.9559H95.1539C94.8742 29.9559 94.2799 30.0025 93.3709 30.0957C92.4852 30.1656 91.448 30.3637 90.2593 30.69C89.094 31.0163 87.8587 31.5174 86.5535 32.1934C85.2483 32.8693 84.048 33.8016 82.9525 34.9902C81.8571 36.1789 80.9481 37.6706 80.2256 39.4652C79.5263 41.2366 79.1767 43.3925 79.1767 45.933V49.6039ZM188.595 37.6473C188.595 39.7216 188.327 41.5745 187.791 43.2061C187.278 44.8376 186.59 46.2826 185.728 47.5412C184.866 48.7765 183.852 49.837 182.686 50.7227C181.544 51.6083 180.356 52.3425 179.12 52.9252C177.885 53.4846 176.626 53.8924 175.344 54.1488C174.086 54.4052 172.897 54.5334 171.778 54.5334H168.108V71H158.948V54.5334H155.312C154.193 54.5334 152.993 54.4052 151.711 54.1488C150.452 53.8924 149.194 53.4846 147.935 52.9252C146.7 52.3425 145.511 51.6083 144.369 50.7227C143.227 49.837 142.213 48.7765 141.327 47.5412C140.465 46.2826 139.766 44.8376 139.23 43.2061C138.717 41.5512 138.461 39.6983 138.461 37.6473V20.866H147.551V37.6473C147.551 38.8359 147.737 39.9081 148.11 40.8637C148.483 41.796 149.007 42.6001 149.683 43.276C150.359 43.9519 151.175 44.4763 152.13 44.8492C153.109 45.1988 154.193 45.3736 155.382 45.3736H171.778C172.641 45.2338 173.527 45.059 174.435 44.8492C175.344 44.6161 176.172 44.2316 176.918 43.6955C177.664 43.1594 178.281 42.4136 178.771 41.458C179.26 40.5024 179.505 39.2322 179.505 37.6473V20.866H188.595V37.6473ZM248.638 71H239.548V20.866H248.638V71ZM314.599 29.9559H294.567V71H285.477V29.9559H265.409V20.866H314.599V29.9559Z" fill="#3168D8"/>
<path d="M47.5953 125H9.14297C8.53776 125 7.97578 124.892 7.45703 124.676C6.93828 124.46 6.48438 124.168 6.09531 123.8C5.72786 123.411 5.43607 122.957 5.21992 122.439C5.00378 121.92 4.8957 121.358 4.8957 120.753V78.507H13.3254V116.57H47.5953V125ZM101.87 106.195C101.87 109.027 101.383 111.631 100.411 114.009C99.4379 116.387 98.087 118.44 96.3578 120.169C94.6286 121.898 92.5753 123.249 90.1977 124.222C87.8417 125.173 85.2695 125.648 82.4813 125.648H71.0687C68.2805 125.648 65.6975 125.173 63.3199 124.222C60.9423 123.249 58.8889 121.898 57.1598 120.169C55.4306 118.44 54.0689 116.387 53.0746 114.009C52.102 111.631 51.6156 109.027 51.6156 106.195V97.3117C51.6156 94.5018 52.102 91.9081 53.0746 89.5305C54.0689 87.1312 55.4306 85.0779 57.1598 83.3703C58.8889 81.6411 60.9423 80.2902 63.3199 79.3176C65.6975 78.3449 68.2805 77.8586 71.0687 77.8586H82.4813C85.2695 77.8586 87.8417 78.3449 90.1977 79.3176C92.5753 80.2902 94.6286 81.6411 96.3578 83.3703C98.087 85.0779 99.4379 87.1312 100.411 89.5305C101.383 91.9081 101.87 94.5018 101.87 97.3117V106.195ZM93.4398 97.3117C93.4398 95.6474 93.1697 94.1452 92.6293 92.8051C92.1105 91.4434 91.3648 90.287 90.3922 89.3359C89.4411 88.3633 88.2848 87.6176 86.923 87.0988C85.5829 86.5585 84.1023 86.2883 82.4813 86.2883H71.0687C69.426 86.2883 67.9238 86.5585 66.5621 87.0988C65.222 87.6176 64.0656 88.3633 63.093 89.3359C62.1203 90.287 61.3638 91.4434 60.8234 92.8051C60.3047 94.1452 60.0453 95.6474 60.0453 97.3117V106.195C60.0453 107.86 60.3047 109.373 60.8234 110.734C61.3638 112.074 62.1203 113.231 63.093 114.204C64.0656 115.155 65.222 115.9 66.5621 116.441C67.9238 116.959 69.426 117.219 71.0687 117.219H82.4164C84.0591 117.219 85.5505 116.959 86.8906 116.441C88.2523 115.9 89.4195 115.155 90.3922 114.204C91.3648 113.231 92.1105 112.074 92.6293 110.734C93.1697 109.373 93.4398 107.86 93.4398 106.195V97.3117ZM155.755 120.753C155.755 121.358 155.647 121.92 155.43 122.439C155.214 122.957 154.912 123.411 154.523 123.8C154.134 124.168 153.68 124.46 153.161 124.676C152.642 124.892 152.091 125 151.507 125H132.508C130.714 125 128.899 124.805 127.061 124.416C125.224 124.027 123.441 123.433 121.712 122.633C120.004 121.812 118.394 120.774 116.881 119.521C115.368 118.267 114.039 116.786 112.893 115.079C111.769 113.35 110.883 111.383 110.234 109.178C109.586 106.952 109.262 104.477 109.262 101.754V78.507H117.691V101.754C117.691 104.131 118.016 106.141 118.664 107.784C119.334 109.427 120.177 110.799 121.193 111.902C122.209 113.004 123.322 113.868 124.532 114.495C125.743 115.122 126.888 115.587 127.969 115.889C129.071 116.192 130.033 116.387 130.855 116.473C131.698 116.538 132.249 116.57 132.508 116.57H147.325V78.507H155.755V120.753ZM211.974 105.547C211.974 108.378 211.477 110.983 210.483 113.361C209.51 115.738 208.159 117.792 206.43 119.521C204.701 121.228 202.648 122.568 200.27 123.541C197.892 124.514 195.309 125 192.521 125H169.761C169.156 125 168.594 124.892 168.075 124.676C167.556 124.46 167.102 124.168 166.713 123.8C166.346 123.411 166.054 122.957 165.838 122.439C165.622 121.92 165.514 121.358 165.514 120.753V82.7543C165.514 82.1707 165.622 81.6195 165.838 81.1008C166.054 80.582 166.346 80.1281 166.713 79.7391C167.102 79.35 167.556 79.0474 168.075 78.8312C168.594 78.6151 169.156 78.507 169.761 78.507H192.521C195.309 78.507 197.892 78.9934 200.27 79.966C202.648 80.9387 204.701 82.2896 206.43 84.0187C208.159 85.7263 209.51 87.7797 210.483 90.1789C211.477 92.5565 211.974 95.1503 211.974 97.9602V105.547ZM203.545 97.9602C203.545 96.3174 203.274 94.8152 202.734 93.4535C202.215 92.0918 201.47 90.9354 200.497 89.9844C199.524 89.0117 198.357 88.266 196.995 87.7473C195.655 87.2069 194.164 86.9367 192.521 86.9367H173.943V116.57H192.521C194.164 116.57 195.655 116.311 196.995 115.792C198.357 115.252 199.524 114.506 200.497 113.555C201.47 112.582 202.215 111.426 202.734 110.086C203.274 108.724 203.545 107.211 203.545 105.547V97.9602ZM258.467 106.001H231.849V97.5062H258.467V106.001ZM262.261 125H231.849C230.682 125 229.406 124.795 228.023 124.384C226.64 123.973 225.354 123.303 224.165 122.374C222.998 121.423 222.014 120.202 221.214 118.71C220.436 117.197 220.047 115.349 220.047 113.166V82.7543C220.047 82.1707 220.155 81.6195 220.371 81.1008C220.588 80.582 220.879 80.1281 221.247 79.7391C221.636 79.35 222.09 79.0474 222.609 78.8312C223.127 78.6151 223.689 78.507 224.295 78.507H262.261V86.9367H228.477V113.166C228.477 114.268 228.769 115.111 229.352 115.695C229.936 116.279 230.79 116.57 231.914 116.57H262.261V125ZM316.891 94.1344C316.891 96.0581 316.654 97.7764 316.178 99.2895C315.703 100.802 315.054 102.143 314.233 103.31C313.433 104.455 312.504 105.439 311.445 106.26C310.385 107.082 309.272 107.762 308.105 108.303C306.96 108.821 305.792 109.2 304.604 109.437C303.436 109.675 302.334 109.794 301.296 109.794L318.902 125H305.868L288.295 109.794H282.232V101.364H301.296C302.356 101.278 303.317 101.062 304.182 100.716C305.068 100.349 305.825 99.8622 306.452 99.257C307.1 98.6518 307.597 97.9277 307.943 97.0848C308.289 96.2202 308.462 95.2367 308.462 94.1344V88.8172C308.462 88.3417 308.397 87.985 308.267 87.7473C308.159 87.4879 308.008 87.3042 307.813 87.1961C307.64 87.0664 307.446 86.9908 307.23 86.9691C307.035 86.9475 306.851 86.9367 306.679 86.9367H278.861V125H270.431V82.7543C270.431 82.1707 270.539 81.6195 270.755 81.1008C270.971 80.582 271.263 80.1281 271.63 79.7391C272.02 79.35 272.473 79.0474 272.992 78.8312C273.511 78.6151 274.073 78.507 274.678 78.507H306.679C308.559 78.507 310.148 78.8529 311.445 79.5445C312.741 80.2146 313.79 81.0684 314.589 82.1059C315.411 83.1217 315.994 84.2241 316.34 85.4129C316.708 86.6017 316.891 87.7148 316.891 88.7523V94.1344Z" fill="#7900FF"/>
</svg>
